# xmcd
#
# Track frame offsets: 
#        150
#        20779
#        39726
#        64302
#        84887
#        101517
#        127201
#        145352
#        162132
#        178708
#        200068
#        220732
#        247222
#        266990
#        285758
#
# Disc length: 4052 seconds
#
# Revision: 0
# Processed by: cddbd v1.5.2PL0 Copyright (c) Steve Scherf et al.
# Submitted via: ExactAudioCopyFreeDBPlugin 1.0
#
DISCID=e90fd20f
DTITLE=Maranatha! Music - Heart Of Worship Vol. 2
DYEAR=2011
DGENRE=Religious
TTITLE0=Holy Is The Lord
TTITLE1=You Are My All In All
TTITLE2=The Stand
TTITLE3=Your Name
TTITLE4=Sing To The King
TTITLE5=Breathe
TTITLE6=Indescribable
TTITLE7=I Am Free
TTITLE8=How Deep The Father's Love For Us
TTITLE9=Above All
TTITLE10=Friend Of God
TTITLE11=The Wonderful Cross
TTITLE12=Draw Me Close
TTITLE13=My Redeemer Lives
TTITLE14=Give Us Clean Hands
EXTD=
EXTT0=
EXTT1=
EXTT2=
EXTT3=
EXTT4=
EXTT5=
EXTT6=
EXTT7=
EXTT8=
EXTT9=
EXTT10=
EXTT11=
EXTT12=
EXTT13=
EXTT14=
PLAYORDER=
